<svg xmlns="http://www.w3.org/2000/svg" width="1080" height="250" viewBox="0 0 1080 250">
  <g fill="none" transform="matrix(-1 0 0 1 1080.5 0)">
    <path fill="#E5E5E5" d="M1080,0 L0,0 L0,208 C389.347826,138.666666 749.347826,117.892634 1080,145.677903 C1080,145.677903 1080,97.1186018 1080,0 Z"/>
    <path fill="#EA507C" d="M1090,0 L496.621377,0 L0,0 L0,173 C220.501208,115.333333 402.167874,104.102372 545,139.307116 C759.248188,192.114232 981.105098,113.623762 1090,121.164794 C1090,121.164794 1090,80.7765293 1090,0 Z" style="mix-blend-mode:multiply"/>
    <path fill="#AEC4D5" d="M1080,25 C792.391304,25 594.456522,54.2134832 486.195652,112.640449 C377.934783,171.067415 215.869565,141.853933 0,25 L0,250 C389.347826,175 749.347826,152.52809 1080,182.58427 C1080,182.58427 1080,130.05618 1080,25 Z" transform="matrix(1 0 0 -1 0 275)" style="mix-blend-mode:multiply"/>
  </g>
</svg>
