<?xml version="1.0" encoding="UTF-8"?>
<svg width="1024px" height="267px" viewBox="0 0 1024 267" version="1.1" xmlns="http://www.w3.org/2000/svg" xmlns:xlink="http://www.w3.org/1999/xlink">
    <!-- Generator: Sketch 51.3 (57544) - http://www.bohemiancoding.com/sketch -->
    <title>Deco btm group</title>
    <desc>Created with Sketch.</desc>
    <defs></defs>
    <g id="Page-1" stroke="none" stroke-width="1" fill="none" fill-rule="evenodd">
        <g id="Home-opened" transform="translate(0.000000, -1234.000000)">
            <g id="Deco-btm-group" transform="translate(488.000000, 1367.500000) scale(-1, 1) translate(-488.000000, -1367.500000) translate(-57.000000, 1234.000000)">
                <path d="M1080,2.27373675e-13 L0,2.27373675e-13 L0,188 C389.347826,125.333333 749.347826,106.556804 1080,131.670412 C1080,131.670412 1080,87.7802747 1080,2.27373675e-13 Z" id="Deco-2" fill="#E5E5E5"></path>
                <path d="M1090,0 L496.621377,0 L0,0 L0,173 C220.501208,115.333333 402.167874,104.102372 545,139.307116 C759.248188,192.114232 981.105098,113.623762 1090,121.164794 C1090,121.164794 1090,80.7765293 1090,0 Z" id="Deco-1" fill="#EA507C" style="mix-blend-mode: multiply;"></path>
                <path d="M1080,5.68434189e-13 C792.391304,5.68434189e-13 594.456522,34.6666667 486.195652,104 C377.934783,173.333333 215.869565,138.666667 0,5.68434189e-13 L0,267 C389.347826,178 749.347826,151.333333 1080,187 C1080,187 1080,124.666667 1080,5.68434189e-13 Z" id="Deco-2-Copy" fill="#AEC4D5" style="mix-blend-mode: multiply;" transform="translate(540.000000, 133.500000) scale(1, -1) translate(-540.000000, -133.500000) "></path>
            </g>
        </g>
    </g>
</svg>