<svg width="2636" height="384" viewBox="0 0 2636 384" fill="none" xmlns="http://www.w3.org/2000/svg">
<g id="decomain">
<rect width="2636" height="384" fill="white"/>
<g id="middle" style="mix-blend-mode:multiply">
<path d="M2636 136.968V234.35C2590.36 232.249 2528.32 238.454 2455.94 245.693C2319.48 259.341 2146.28 276.664 1977 248.931C1804.29 220.637 1575.56 276.011 1318 276.011C1060.44 276.011 831.709 220.637 659 248.931C489.723 276.664 316.518 259.341 180.058 245.693C107.678 238.454 45.6357 232.249 0.000244141 234.35V136.968C0.000244141 136.968 803.254 98.5 1318 98.5C1832.75 98.5 2636 136.968 2636 136.968Z" fill="#EA507C"/>
</g>
<g id="grey" style="mix-blend-mode:multiply">
<path d="M2181.8 52.9194C2425.12 143.194 2636 102.726 2636 102.726V299.67C2232.48 262.107 1833.76 377.925 1318 377.925C802.238 377.925 403.518 262.107 0.000244141 299.67V102.726C0.000244141 102.726 210.88 143.194 454.203 52.9194C693.728 -35.9455 980.106 102.726 1318 102.726C1655.89 102.726 1942.27 -35.9455 2181.8 52.9194Z" fill="#E5E5E5"/>
</g>
<g id="redtop" style="mix-blend-mode:darken">
<path d="M2636 136.968V39.5856C2590.36 41.6861 2528.32 35.4811 2455.94 28.2422C2319.48 14.5945 2146.28 -2.72812 1977 25.0043C1804.29 53.2989 1575.56 -1.98443e-06 1318 0C1060.44 1.98443e-06 831.709 53.2989 659 25.0043C489.723 -2.72812 316.518 14.5945 180.058 28.2422C107.678 35.4811 45.6357 41.6861 0.000244141 39.5856V136.968C0.000244141 136.968 803.289 197.968 1318 197.968C1832.71 197.968 2636 136.968 2636 136.968Z" fill="#EA507C"/>
</g>
<g id="blue" style="mix-blend-mode:multiply">
<path d="M1911.34 274.434C2043.46 347.428 2285.01 383.925 2636 383.925V187.053C2232.48 224.602 1833.76 102.83 1318 102.83C802.239 102.83 403.518 224.602 0.000244141 187.053V383.925C350.989 383.925 592.543 347.428 724.661 274.434C856.78 201.441 1082.37 378.925 1318 378.925C1553.63 378.925 1779.22 201.441 1911.34 274.434Z" fill="#AEC4D5"/>
</g>
</g>
</svg>
