<?xml version="1.0" encoding="UTF-8"?>
<svg width="186px" height="175px" viewBox="0 0 186 175" version="1.1" xmlns="http://www.w3.org/2000/svg" xmlns:xlink="http://www.w3.org/1999/xlink">
    <!-- Generator: Sketch 51.3 (57544) - http://www.bohemiancoding.com/sketch -->
    <title>Face outline</title>
    <desc>Created with Sketch.</desc>
    <defs></defs>
    <g id="Page-1" stroke="none" stroke-width="1" fill="none" fill-rule="evenodd">
        <g id="Home-opened" transform="translate(-409.000000, -353.000000)" stroke="#F7F9F9">
            <g id="Face-outline" transform="translate(410.000000, 354.000000)">
                <path d="M87,69.5474056 C87,69.5474056 62,37.5474056 36,62.5474056 C42,91.5474056 87,69.5474056 87,69.5474056 Z" id="Path-3"></path>
                <path d="M167,73.5474056 C167,73.5474056 148,44.2699498 122,69.2699498 C131,97 167,73.5474056 167,73.5474056 Z" id="Path-3-Copy" transform="translate(144.500000, 70.989542) scale(-1, 1) translate(-144.500000, -70.989542) "></path>
                <path d="M112,59 L126,117 C118,127 112.666667,132 110,132 C99,132 90,123 79,120 C71.6666667,118 79.3333333,97.6666667 102,59 L112,59 Z" id="Path-4"></path>
                <path d="M10,22 C10,38.4367781 6.66666667,65.1034448 2.72848411e-12,102 C2.73057698e-12,134.218155 12,151 33.8493683,169.272623 C43.6627739,177.479572 67.5559403,172.243851 91.7222376,165 C111.180801,159.569703 134.273389,154.23637 161,149 C166.716192,136.73335 170.382859,127.066684 172,120 C179.551725,87 179.551725,46.6551672 184,17 C178,12.3333333 172,6.66666667 166,0 C137.333333,2.66666667 102.666667,10 62,22 C23.3333333,24.6666667 6,24.6666667 10,22 Z" id="Path-5"></path>
            </g>
        </g>
    </g>
</svg>