<?xml version="1.0" encoding="UTF-8"?>
<svg width="37px" height="38px" viewBox="0 0 37 38" version="1.1" xmlns="http://www.w3.org/2000/svg" xmlns:xlink="http://www.w3.org/1999/xlink">
    <!-- Generator: Sketch 51.3 (57544) - http://www.bohemiancoding.com/sketch -->
    <title>layout-icon</title>
    <desc>Created with Sketch.</desc>
    <defs></defs>
    <g id="Symbols" stroke="none" stroke-width="1" fill="none" fill-rule="evenodd">
        <g id="Feature" transform="translate(-31.000000, -2.000000)" stroke="#4E5962">
            <g transform="translate(25.000000, 3.000000)" id="layout-icon">
                <g transform="translate(7.000000, 0.000000)">
                    <path d="M29.75,0 L5.25,0 C2.275,0 0,2.34 0,5.4 L0,30.6 C0,33.66 2.275,36 5.25,36 L29.75,36 C32.725,36 35,33.66 35,30.6 L35,5.4 C35,2.34 32.725,0 29.75,0 Z M5.25,3.6 L29.75,3.6 C30.8,3.6 31.5,4.32 31.5,5.4 L31.5,10.8 L3.5,10.8 L3.5,5.4 C3.5,4.32 4.2,3.6 5.25,3.6 Z M3.5,30.6 L3.5,14.4 L10.5,14.4 L10.5,32.4 L5.25,32.4 C4.2,32.4 3.5,31.68 3.5,30.6 Z M29.75,32.4 L14,32.4 L14,14.4 L31.5,14.4 L31.5,30.6 C31.5,31.68 30.8,32.4 29.75,32.4 Z" id="Shape"></path>
                </g>
            </g>
        </g>
    </g>
</svg>