<?xml version="1.0" encoding="UTF-8"?>
<svg width="37px" height="38px" viewBox="0 0 37 38" version="1.1" xmlns="http://www.w3.org/2000/svg" xmlns:xlink="http://www.w3.org/1999/xlink">
    <!-- Generator: Sketch 51.3 (57544) - http://www.bohemiancoding.com/sketch -->
    <title>grid-icon</title>
    <desc>Created with Sketch.</desc>
    <defs></defs>
    <g id="Symbols" stroke="none" stroke-width=".5" fill="none" fill-rule="evenodd">
        <g id="Feature" transform="translate(-31.000000, -2.000000)" stroke="#4E5962">
            <g transform="translate(25.000000, 3.000000)" id="grid-icon">
                <g transform="translate(7.000000, 0.000000)">
                    <g id="grid">
                        <path d="M14,0 L1.75,0 C0.7,0 0,0.72 0,1.8 L0,14.4 C0,15.48 0.7,16.2 1.75,16.2 L14,16.2 C15.05,16.2 15.75,15.48 15.75,14.4 L15.75,1.8 C15.75,0.72 15.05,0 14,0 Z M12.25,12.6 L3.5,12.6 L3.5,3.6 L12.25,3.6 L12.25,12.6 Z" id="Shape"></path>
                        <path d="M33.25,0 L21,0 C19.95,0 19.25,0.72 19.25,1.8 L19.25,14.4 C19.25,15.48 19.95,16.2 21,16.2 L33.25,16.2 C34.3,16.2 35,15.48 35,14.4 L35,1.8 C35,0.72 34.3,0 33.25,0 Z M31.5,12.6 L22.75,12.6 L22.75,3.6 L31.5,3.6 L31.5,12.6 Z" id="Shape"></path>
                        <path d="M33.25,19.8 L21,19.8 C19.95,19.8 19.25,20.52 19.25,21.6 L19.25,34.2 C19.25,35.28 19.95,36 21,36 L33.25,36 C34.3,36 35,35.28 35,34.2 L35,21.6 C35,20.52 34.3,19.8 33.25,19.8 Z M31.5,32.4 L22.75,32.4 L22.75,23.4 L31.5,23.4 L31.5,32.4 Z" id="Shape"></path>
                        <path d="M14,19.8 L1.75,19.8 C0.7,19.8 0,20.52 0,21.6 L0,34.2 C0,35.28 0.7,36 1.75,36 L14,36 C15.05,36 15.75,35.28 15.75,34.2 L15.75,21.6 C15.75,20.52 15.05,19.8 14,19.8 Z M12.25,32.4 L3.5,32.4 L3.5,23.4 L12.25,23.4 L12.25,32.4 Z" id="Shape"></path>
                    </g>
                </g>
            </g>
        </g>
    </g>
</svg>