<?xml version="1.0" encoding="UTF-8"?>
<svg width="31px" height="32px" viewBox="0 0 31 32" version="1.1" xmlns="http://www.w3.org/2000/svg" xmlns:xlink="http://www.w3.org/1999/xlink">
    <!-- Generator: Sketch 51.3 (57544) - http://www.bohemiancoding.com/sketch -->
    <title>Music-icon</title>
    <desc>Created with Sketch.</desc>
    <defs></defs>
    <g id="Symbols" stroke="none" stroke-width=".5" fill="none" fill-rule="evenodd">
        <g id="Feature" transform="translate(-34.000000, -5.000000)" fill-rule="nonzero" stroke="#4E5962">
            <g transform="translate(25.000000, 3.000000)" id="Music-icon">
                <g transform="translate(10.000000, 3.000000)">
                    <path d="M28.42,0.3 C28.13,0 27.695,0 27.26,0 L9.86,3 C9.28,3.15 8.7,3.75 8.7,4.5 L8.7,21 L4.35,21 C1.885,21 0,22.95 0,25.5 C0,28.05 1.885,30 4.35,30 L7.25,30 C9.715,30 11.6,28.05 11.6,25.5 L11.6,5.7 L26.1,3.15 L26.1,18 L21.75,18 C19.285,18 17.4,19.95 17.4,22.5 C17.4,25.05 19.285,27 21.75,27 L24.65,27 C27.115,27 29,25.05 29,22.5 L29,1.5 C29,1.05 28.855,0.6 28.42,0.3 Z M8.7,25.5 C8.7,26.4 8.12,27 7.25,27 L4.35,27 C3.48,27 2.9,26.4 2.9,25.5 C2.9,24.6 3.48,24 4.35,24 L8.7,24 L8.7,25.5 Z M26.1,22.5 C26.1,23.4 25.52,24 24.65,24 L21.75,24 C20.88,24 20.3,23.4 20.3,22.5 C20.3,21.6 20.88,21 21.75,21 L26.1,21 L26.1,22.5 Z" id="Shape"></path>
                </g>
            </g>
        </g>
    </g>
</svg>