<?xml version="1.0" encoding="UTF-8"?>
<svg width="38px" height="30px" viewBox="0 0 38 30" version="1.1" xmlns="http://www.w3.org/2000/svg" xmlns:xlink="http://www.w3.org/1999/xlink">
    <!-- Generator: Sketch 51.3 (57544) - http://www.bohemiancoding.com/sketch -->
    <title>responsive-icon</title>
    <desc>Created with Sketch.</desc>
    <defs>
        <path d="M31.9324675,0 L10.238961,0 C7.93402597,0 6.17142857,1.82 6.17142857,4.2 L6.17142857,18.2 C6.17142857,20.58 7.93402597,22.4 10.238961,22.4 L19.7298701,22.4 L19.7298701,25.2 L15.6623377,25.2 C14.8488312,25.2 14.3064935,25.76 14.3064935,26.6 C14.3064935,27.44 14.8488312,28 15.6623377,28 L26.5090909,28 C27.3225974,28 27.8649351,27.44 27.8649351,26.6 C27.8649351,25.76 27.3225974,25.2 26.5090909,25.2 L22.4415584,25.2 L22.4415584,22.4 L31.9324675,22.4 C34.2374026,22.4 36,20.58 36,18.2 L36,4.2 C36,1.82 34.2374026,0 31.9324675,0 Z M33.2883117,18.2 C33.2883117,19.04 32.745974,19.6 31.9324675,19.6 L10.238961,19.6 C9.42545455,19.6 8.88311688,19.04 8.88311688,18.2 L8.88311688,4.2 C8.88311688,3.36 9.42545455,2.8 10.238961,2.8 L31.9324675,2.8 C32.745974,2.8 33.2883117,3.36 33.2883117,4.2 L33.2883117,18.2 Z" id="path-1"></path>
    </defs>
    <g id="Symbols" stroke="none" stroke-width=".5" fill="none" fill-rule="evenodd">
        <g id="Feature" transform="translate(-31.000000, -3.000000)">
            <g transform="translate(25.000000, 3.000000)" id="responsive-icon">
                <g transform="translate(7.000000, 1.000000)">
                    <g id="smartphone">
                        <path d="M6.68571429,15.5555556 L1.54285714,15.5555556 C0.668571429,15.5555556 0,16.2909091 0,17.2525253 L0,26.3030303 C0,27.2646465 0.668571429,28 1.54285714,28 L6.68571429,28 C7.56,28 8.22857143,27.2646465 8.22857143,26.3030303 L8.22857143,17.2525253 C8.22857143,16.2909091 7.56,15.5555556 6.68571429,15.5555556 Z M3.6,25.1717172 C3.6,25.0020202 3.65142857,24.8888889 3.75428571,24.7757576 C3.96,24.5494949 4.26857143,24.5494949 4.47428571,24.7757576 C4.57714286,24.8888889 4.62857143,25.0585859 4.62857143,25.1717172 C4.62857143,25.2848485 4.57714286,25.4545455 4.47428571,25.5676768 C4.37142857,25.6808081 4.26857143,25.7373737 4.11428571,25.7373737 C3.96,25.7373737 3.85714286,25.6808081 3.75428571,25.5676768 C3.65142857,25.4545455 3.6,25.3414141 3.6,25.1717172 Z" id="Combined-Shape" stroke="#4E5962"></path>
                        <mask id="mask-2" fill="white">
                            <use xlink:href="#path-1"></use>
                        </mask>
                        <use id="Shape" stroke="#4E5962" fill="#FFFFFF" xlink:href="#path-1"></use>
                    </g>
                </g>
            </g>
        </g>
    </g>
</svg>