<?xml version="1.0" encoding="UTF-8"?>
<svg width="39px" height="27px" viewBox="0 0 39 27" version="1.1" xmlns="http://www.w3.org/2000/svg" xmlns:xlink="http://www.w3.org/1999/xlink">
    <!-- Generator: Sketch 51.3 (57544) - http://www.bohemiancoding.com/sketch -->
    <title>toggle-icon</title>
    <desc>Created with Sketch.</desc>
    <defs></defs>
    <g id="Symbols" stroke="none" stroke-width="1" fill="none" fill-rule="evenodd">
        <g id="Feature" transform="translate(-31.000000, -8.000000)" stroke="#4E5962">
            <g transform="translate(25.000000, 3.000000)" id="toggle-icon">
                <g transform="translate(7.000000, 6.000000)">
                    <g id="toggle-left">
                        <path d="M24.6666667,0 L12.3333333,0 C5.55,0 0,5.625 0,12.5 C0,19.375 5.55,25 12.3333333,25 L24.6666667,25 C31.45,25 37,19.375 37,12.5 C37,5.625 31.45,0 24.6666667,0 Z M24.6666667,21.875 L12.3333333,21.875 C7.24583333,21.875 3.08333333,17.65625 3.08333333,12.5 C3.08333333,7.34375 7.24583333,3.125 12.3333333,3.125 L24.6666667,3.125 C29.7541667,3.125 33.9166667,7.34375 33.9166667,12.5 C33.9166667,17.65625 29.7541667,21.875 24.6666667,21.875 Z" id="Shape"></path>
                        <path d="M12.3333333,6.25 C8.94166667,6.25 6.16666667,9.0625 6.16666667,12.5 C6.16666667,15.9375 8.94166667,18.75 12.3333333,18.75 C15.725,18.75 18.5,15.9375 18.5,12.5 C18.5,9.0625 15.725,6.25 12.3333333,6.25 Z M12.3333333,15.625 C10.6375,15.625 9.25,14.21875 9.25,12.5 C9.25,10.78125 10.6375,9.375 12.3333333,9.375 C14.0291667,9.375 15.4166667,10.78125 15.4166667,12.5 C15.4166667,14.21875 14.0291667,15.625 12.3333333,15.625 Z" id="Shape"></path>
                    </g>
                </g>
            </g>
        </g>
    </g>
</svg>