<?xml version="1.0" encoding="UTF-8"?>
<svg width="82px" height="103px" viewBox="0 0 82 103" version="1.1" xmlns="http://www.w3.org/2000/svg" xmlns:xlink="http://www.w3.org/1999/xlink">
    <!-- Generator: Sketch 51.3 (57544) - http://www.bohemiancoding.com/sketch -->
    <title>Feature</title>
    <desc>Created with Sketch.</desc>
    <defs>
        <path d="M0,43.8012422 C10.9813665,48.8695652 25.0881988,48.8695652 42.3204969,43.8012422 C59.552795,38.7329193 72.6459627,38.7329193 81.6,43.8012422 L81.6,89.4161491 L0,89.4161491 L0,43.8012422 Z" id="path-1"></path>
        <filter x="-4.3%" y="-13.2%" width="108.6%" height="116.2%" filterUnits="objectBoundingBox" id="filter-2">
            <feMorphology radius="1" operator="erode" in="SourceAlpha" result="shadowSpreadOuter1"></feMorphology>
            <feOffset dx="0" dy="-3" in="shadowSpreadOuter1" result="shadowOffsetOuter1"></feOffset>
            <feGaussianBlur stdDeviation="1" in="shadowOffsetOuter1" result="shadowBlurOuter1"></feGaussianBlur>
            <feColorMatrix values="0 0 0 0 0   0 0 0 0 0   0 0 0 0 0  0 0 0 0.129755435 0" type="matrix" in="shadowBlurOuter1"></feColorMatrix>
        </filter>
    </defs>
    <g id="Page-1" stroke="none" stroke-width="1" fill="none" fill-rule="evenodd">
        <g id="Home-opened" transform="translate(-224.000000, -834.000000)">
            <g id="Icon-Menu" transform="translate(184.000000, 830.000000)">
                <g id="Feature">
                    <g transform="translate(40.000000, 4.800000)">
                        <g id="layout-icon" transform="translate(11.200000, 0.000000)" stroke="#4E5962" stroke-width="1.6">
                            <path d="M47.7420896,0 L8.42507463,0 C3.65086567,0 0,3.78125373 0,8.72597015 L0,49.4471642 C0,54.3918806 3.65086567,58.1731343 8.42507463,58.1731343 L47.7420896,58.1731343 C52.5162985,58.1731343 56.1671642,54.3918806 56.1671642,49.4471642 L56.1671642,8.72597015 C56.1671642,3.78125373 52.5162985,0 47.7420896,0 Z M8.42507463,5.81731343 L47.7420896,5.81731343 C49.4271045,5.81731343 50.5504478,6.98077612 50.5504478,8.72597015 L50.5504478,17.4519403 L5.61671642,17.4519403 L5.61671642,8.72597015 C5.61671642,6.98077612 6.7400597,5.81731343 8.42507463,5.81731343 Z M5.61671642,49.4471642 L5.61671642,23.2692537 L16.8501493,23.2692537 L16.8501493,52.3558209 L8.42507463,52.3558209 C6.7400597,52.3558209 5.61671642,51.1923582 5.61671642,49.4471642 Z M47.7420896,52.3558209 L22.4668657,52.3558209 L22.4668657,23.2692537 L50.5504478,23.2692537 L50.5504478,49.4471642 C50.5504478,51.1923582 49.4271045,52.3558209 47.7420896,52.3558209 Z" id="Shape"></path>
                        </g>
                        <g id="submask">
                            <use fill="black" fill-opacity="1" filter="url(#filter-2)" xlink:href="#path-1"></use>
                            <use fill="#F7F9F9" fill-rule="evenodd" xlink:href="#path-1"></use>
                        </g>
                        <text id="Label" font-family="OpenSans-Light, Open Sans" font-size="22.4" font-weight="300" fill="#505050">
                            <tspan x="7.0578125" y="96">Layout</tspan>
                        </text>
                    </g>
                </g>
            </g>
        </g>
    </g>
</svg>