<?xml version="1.0" encoding="UTF-8"?>
<svg width="82px" height="91px" viewBox="0 0 82 91" version="1.1" xmlns="http://www.w3.org/2000/svg" xmlns:xlink="http://www.w3.org/1999/xlink">
    <!-- Generator: Sketch 51.3 (57544) - http://www.bohemiancoding.com/sketch -->
    <title>Feature Copy 2</title>
    <desc>Created with Sketch.</desc>
    <defs>
        <path d="M0,43.8012422 C10.9813665,48.8695652 25.0881988,48.8695652 42.3204969,43.8012422 C59.552795,38.7329193 72.6459627,38.7329193 81.6,43.8012422 L81.6,89.4161491 L0,89.4161491 L0,43.8012422 Z" id="path-1"></path>
        <filter x="-4.3%" y="-13.2%" width="108.6%" height="116.2%" filterUnits="objectBoundingBox" id="filter-2">
            <feMorphology radius="1" operator="erode" in="SourceAlpha" result="shadowSpreadOuter1"></feMorphology>
            <feOffset dx="0" dy="-3" in="shadowSpreadOuter1" result="shadowOffsetOuter1"></feOffset>
            <feGaussianBlur stdDeviation="1" in="shadowOffsetOuter1" result="shadowBlurOuter1"></feGaussianBlur>
            <feColorMatrix values="0 0 0 0 0   0 0 0 0 0   0 0 0 0 0  0 0 0 0.129755435 0" type="matrix" in="shadowBlurOuter1"></feColorMatrix>
        </filter>
    </defs>
    <g id="Page-1" stroke="none" stroke-width="1" fill="none" fill-rule="evenodd">
        <g id="Home-opened" transform="translate(-720.000000, -834.000000)">
            <g id="Icon-Menu" transform="translate(184.000000, 830.000000)">
                <g id="Feature" transform="translate(496.000000, 0.000000)">
                    <g transform="translate(40.000000, 4.800000)">
                        <g id="grid-icon" transform="translate(11.200000, 0.000000)" stroke="#4E5962">
                            <g id="grid">
                                <path d="M22.4668657,0 L2.80835821,0 C1.12334328,0 0,1.16346269 0,2.90865672 L0,23.2692537 C0,25.0144478 1.12334328,26.1779104 2.80835821,26.1779104 L22.4668657,26.1779104 C24.1518806,26.1779104 25.2752239,25.0144478 25.2752239,23.2692537 L25.2752239,2.90865672 C25.2752239,1.16346269 24.1518806,0 22.4668657,0 Z M19.6585075,20.360597 L5.61671642,20.360597 L5.61671642,5.81731343 L19.6585075,5.81731343 L19.6585075,20.360597 Z" id="Shape" stroke-width="1.6"></path>
                                <path d="M53.358806,0 L33.7002985,0 C32.0152836,0 30.8919403,1.16346269 30.8919403,2.90865672 L30.8919403,23.2692537 C30.8919403,25.0144478 32.0152836,26.1779104 33.7002985,26.1779104 L53.358806,26.1779104 C55.0438209,26.1779104 56.1671642,25.0144478 56.1671642,23.2692537 L56.1671642,2.90865672 C56.1671642,1.16346269 55.0438209,0 53.358806,0 Z M50.5504478,20.360597 L36.5086567,20.360597 L36.5086567,5.81731343 L50.5504478,5.81731343 L50.5504478,20.360597 Z" id="Shape" stroke-width="1.6"></path>
                                <path d="M53.358806,31.9952239 L33.7002985,31.9952239 C32.0152836,31.9952239 30.8919403,33.1586866 30.8919403,34.9038806 L30.8919403,55.2644776 C30.8919403,57.0096716 32.0152836,58.1731343 33.7002985,58.1731343 L53.358806,58.1731343 C55.0438209,58.1731343 56.1671642,57.0096716 56.1671642,55.2644776 L56.1671642,34.9038806 C56.1671642,33.1586866 55.0438209,31.9952239 53.358806,31.9952239 Z M50.5504478,52.3558209 L36.5086567,52.3558209 L36.5086567,37.8125373 L50.5504478,37.8125373 L50.5504478,52.3558209 Z" id="Shape" stroke-width="1.6"></path>
                                <path d="M22.4668657,31.9952239 L2.80835821,31.9952239 C1.12334328,31.9952239 0,33.1586866 0,34.9038806 L0,55.2644776 C0,57.0096716 1.12334328,58.1731343 2.80835821,58.1731343 L22.4668657,58.1731343 C24.1518806,58.1731343 25.2752239,57.0096716 25.2752239,55.2644776 L25.2752239,34.9038806 C25.2752239,33.1586866 24.1518806,31.9952239 22.4668657,31.9952239 Z M19.6585075,52.3558209 L5.61671642,52.3558209 L5.61671642,37.8125373 L19.6585075,37.8125373 L19.6585075,52.3558209 Z" id="Shape" stroke-width="1.6"></path>
                            </g>
                        </g>
                        <g id="submask">
                            <use fill="black" fill-opacity="1" filter="url(#filter-2)" xlink:href="#path-1"></use>
                            <use fill="#F7F9F9" fill-rule="evenodd" xlink:href="#path-1"></use>
                        </g>
                    </g>
                </g>
            </g>
        </g>
    </g>
</svg>