<svg xmlns="http://www.w3.org/2000/svg" width="1045" height="848" viewBox="0 0 1045 848">
  <defs>
    <linearGradient id="modular-deco-a" x1="49.999%" x2="49.999%" y1="100.004%" y2="0%">
      <stop offset="0%" stop-color="gray" stop-opacity=".25"/>
      <stop offset="54%" stop-color="gray" stop-opacity=".12"/>
      <stop offset="100%" stop-color="gray" stop-opacity=".1"/>
    </linearGradient>
    <linearGradient id="modular-deco-b" x1="0%" x2="100%" y1="49.997%" y2="49.997%">
      <stop offset="0%" stop-color="gray" stop-opacity=".25"/>
      <stop offset="54%" stop-color="gray" stop-opacity=".12"/>
      <stop offset="100%" stop-color="gray" stop-opacity=".1"/>
    </linearGradient>
    <linearGradient id="modular-deco-c" x1="50%" x2="50%" y1="100%" y2="0%">
      <stop offset="0%" stop-color="gray" stop-opacity=".25"/>
      <stop offset="54%" stop-color="gray" stop-opacity=".12"/>
      <stop offset="100%" stop-color="gray" stop-opacity=".1"/>
    </linearGradient>
    <linearGradient id="modular-deco-d" x1="49.999%" x2="49.999%" y1="100.007%" y2="0%">
      <stop offset="0%" stop-color="gray" stop-opacity=".25"/>
      <stop offset="54%" stop-color="gray" stop-opacity=".12"/>
      <stop offset="100%" stop-color="gray" stop-opacity=".1"/>
    </linearGradient>
    <linearGradient id="modular-deco-e" x1="50%" x2="50%" y1="100%" y2="0%">
      <stop offset="0%" stop-color="gray" stop-opacity=".25"/>
      <stop offset="54%" stop-color="gray" stop-opacity=".12"/>
      <stop offset="100%" stop-color="gray" stop-opacity=".1"/>
    </linearGradient>
  </defs>
  <g fill="none" fill-rule="evenodd">
    <g fill-rule="nonzero" opacity=".441">
      <path fill="#9DB0BE" fill-opacity=".34" d="M517.86427,755.93794 C275.46543,737.49137 -13.60646,549.67166 1.11062,356.28054 C15.8277,162.88942 295.79694,-17.14154 538.19577,1.305 C780.5946,19.75154 920.12766,381.167 905.41058,574.55809 C890.6935,767.94918 760.2631,774.38451 517.86427,755.93794 Z"/>
      <ellipse cx="538.194" cy="756" fill="#9DB0BE" rx="506" ry="31"/>
      <ellipse cx="538.194" cy="755.5" fill="#000" opacity=".1" rx="431" ry="20.5"/>
      <rect width="752" height="590" x="169.194" y="162" fill="#798187" fill-opacity=".99"/>
      <path fill="#F2F2F2" d="M536.63812 242.62914L351.1204 242.62914C350.314913 242.630838 349.569885 242.20209 349.166651 241.504799 348.763417 240.807509 348.763417 239.947921 349.166651 239.250631 349.569885 238.55334 350.314913 238.124592 351.1204 238.12629L536.63812 238.12629C537.879695 238.128907 538.884805 239.136137 538.884805 240.377715 538.884805 241.619293 537.879695 242.626523 536.63812 242.62914L536.63812 242.62914zM739.71697 267.39486L447.93183 267.39486C446.6884 267.39486 445.6804 266.38686 445.6804 265.14343 445.6804 263.9 446.6884 262.892 447.93183 262.892L739.71697 262.892C740.521329 262.892 741.264587 263.32112 741.666766 264.017715 742.068945 264.71431 742.068945 265.57255 741.666766 266.269145 741.264587 266.96574 740.521329 267.39486 739.71697 267.39486zM537.53869 292.16057L352.02097 292.16057C350.77754 292.16057 349.76954 291.15257 349.76954 289.90914 349.76954 288.66571 350.77754 287.65771 352.02097 287.65771L537.53869 287.65771C538.78212 287.65771 539.79012 288.66571 539.79012 289.90914 539.79012 291.15257 538.78212 292.16057 537.53869 292.16057L537.53869 292.16057zM739.71697 292.61086L554.19926 292.61086C552.95583 292.61086 551.94783 291.60286 551.94783 290.35943 551.94783 289.116 552.95583 288.108 554.19926 288.108L739.71697 288.108C740.9604 288.108 741.9684 289.116 741.9684 290.35943 741.9684 291.60286 740.9604 292.61086 739.71697 292.61086L739.71697 292.61086zM537.98897 316.92629L352.47126 316.92629C351.22783 316.92629 350.21983 315.91829 350.21983 314.67486 350.21983 313.43143 351.22783 312.42343 352.47126 312.42343L537.98897 312.42343C539.2324 312.42343 540.2404 313.43143 540.2404 314.67486 540.2404 315.91829 539.2324 316.92629 537.98897 316.92629zM538.43926 341.692L352.92154 341.692C351.67811 341.692 350.67011 340.684 350.67011 339.44057 350.67011 338.19714 351.67811 337.18914 352.92154 337.18914L538.43926 337.18914C539.68269 337.18914 540.69069 338.19714 540.69069 339.44057 540.69069 340.684 539.68269 341.692 538.43926 341.692L538.43926 341.692zM622.64269 243.07943L569.50897 243.07943C568.26554 243.07943 567.25754 242.07143 567.25754 240.828 567.25754 239.58457 568.26554 238.57657 569.50897 238.57657L622.64269 238.57657C623.88612 238.57657 624.89412 239.58457 624.89412 240.828 624.89412 242.07143 623.88612 243.07943 622.64269 243.07943L622.64269 243.07943zM622.64269 316.92629L569.50897 316.92629C568.26554 316.92629 567.25754 315.91829 567.25754 314.67486 567.25754 313.43143 568.26554 312.42343 569.50897 312.42343L622.64269 312.42343C623.88612 312.42343 624.89412 313.43143 624.89412 314.67486 624.89412 315.91829 623.88612 316.92629 622.64269 316.92629L622.64269 316.92629zM622.64269 341.24171L569.50897 341.24171C568.703483 341.243408 567.958455 340.81466 567.555221 340.117369 567.151987 339.420079 567.151987 338.560491 567.555221 337.863201 567.958455 337.16591 568.703483 336.737162 569.50897 336.73886L622.64269 336.73886C623.448177 336.737162 624.193205 337.16591 624.596439 337.863201 624.999673 338.560491 624.999673 339.420079 624.596439 340.117369 624.193205 340.81466 623.448177 341.243408 622.64269 341.24171L622.64269 341.24171zM711.79926 341.24171L658.66554 341.24171C657.423965 341.239093 656.418855 340.231863 656.418855 338.990285 656.418855 337.748707 657.423965 336.741477 658.66554 336.73886L711.79926 336.73886C712.604747 336.737162 713.349775 337.16591 713.753009 337.863201 714.156243 338.560491 714.156243 339.420079 713.753009 340.117369 713.349775 340.81466 712.604747 341.243408 711.79926 341.24171zM403.80383 267.39486L350.67012 267.39486C349.42669 267.39486 348.41869 266.38686 348.41869 265.14343 348.41869 263.9 349.42669 262.892 350.67012 262.892L403.80383 262.892C405.04726 262.892 406.05526 263.9 406.05526 265.14343 406.05526 266.38686 405.04726 267.39486 403.80383 267.39486zM536.86326 607.36057L351.34554 607.36057C350.10211 607.36057 349.09411 606.35257 349.09411 605.10914 349.09411 603.86571 350.10211 602.85771 351.34554 602.85771L536.86326 602.85771C538.10669 602.85771 539.11469 603.86571 539.11469 605.10914 539.11469 606.35257 538.10669 607.36057 536.86326 607.36057zM535.96269 656.892L350.44497 656.892C349.20154 656.892 348.19354 655.884 348.19354 654.64057 348.19354 653.39714 349.20154 652.38914 350.44497 652.38914L535.96269 652.38914C537.20612 652.38914 538.21412 653.39714 538.21412 654.64057 538.21412 655.884 537.20612 656.892 535.96269 656.892zM536.41297 681.65771L350.89526 681.65771C350.089773 681.659408 349.344745 681.23066 348.941511 680.533369 348.538277 679.836079 348.538277 678.976491 348.941511 678.279201 349.344745 677.58191 350.089773 677.153162 350.89526 677.15486L536.41297 677.15486C537.218457 677.153162 537.963485 677.58191 538.366719 678.279201 538.769953 678.976491 538.769953 679.836079 538.366719 680.533369 537.963485 681.23066 537.218457 681.659408 536.41297 681.65771zM615.66326 657.34229L562.52954 657.34229C561.28611 657.34229 560.27811 656.33429 560.27811 655.09086 560.27811 653.84743 561.28611 652.83943 562.52954 652.83943L615.66326 652.83943C616.90669 652.83943 617.91469 653.84743 617.91469 655.09086 617.91469 656.33429 616.90669 657.34229 615.66326 657.34229zM615.66326 681.65771L562.52954 681.65771C561.286112 681.65771 560.278115 680.649713 560.278115 679.406285 560.278115 678.162857 561.286112 677.15486 562.52954 677.15486L615.66326 677.15486C616.906688 677.15486 617.914685 678.162857 617.914685 679.406285 617.914685 680.649713 616.906688 681.65771 615.66326 681.65771L615.66326 681.65771zM704.81983 657.34229L651.68612 657.34229C650.44269 657.34229 649.43469 656.33429 649.43469 655.09086 649.43469 653.84743 650.44269 652.83943 651.68612 652.83943L704.81983 652.83943C706.06326 652.83943 707.07126 653.84743 707.07126 655.09086 707.07126 656.33429 706.06326 657.34229 704.81983 657.34229L704.81983 657.34229zM739.94212 632.12629L448.15697 632.12629C446.91354 632.12629 445.90554 631.11829 445.90554 629.87486 445.90554 628.63143 446.91354 627.62343 448.15697 627.62343L739.94212 627.62343C741.18555 627.62343 742.19355 628.63143 742.19355 629.87486 742.19355 631.11829 741.18555 632.12629 739.94212 632.12629L739.94212 632.12629zM404.02897 632.12629L350.89526 632.12629C349.65183 632.12629 348.64383 631.11829 348.64383 629.87486 348.64383 628.63143 349.65183 627.62343 350.89526 627.62343L404.02897 627.62343C405.2724 627.62343 406.2804 628.63143 406.2804 629.87486 406.2804 631.11829 405.2724 632.12629 404.02897 632.12629L404.02897 632.12629zM739.94212 706.87371L448.15697 706.87371C447.351483 706.875408 446.606455 706.44666 446.203221 705.749369 445.799987 705.052079 445.799987 704.192491 446.203221 703.495201 446.606455 702.79791 447.351483 702.369162 448.15697 702.37086L739.94212 702.37086C741.185548 702.37086 742.193545 703.378857 742.193545 704.622285 742.193545 705.865713 741.185548 706.87371 739.94212 706.87371L739.94212 706.87371zM404.02897 706.87371L350.89526 706.87371C350.089773 706.875408 349.344745 706.44666 348.941511 705.749369 348.538277 705.052079 348.538277 704.192491 348.941511 703.495201 349.344745 702.79791 350.089773 702.369162 350.89526 702.37086L404.02897 702.37086C404.834457 702.369162 405.579485 702.79791 405.982719 703.495201 406.385953 704.192491 406.385953 705.052079 405.982719 705.749369 405.579485 706.44666 404.834457 706.875408 404.02897 706.87371L404.02897 706.87371z"/>
      <polygon fill="#AEC4D5" points="492.06 401.13 420.014 472.275 492.06 543.42 508.27 527.21 453.786 472.725 508.72 417.79"/>
      <polygon fill="#AEC4D5" points="598.327 401.13 670.373 472.275 598.327 543.42 582.117 527.21 636.602 472.725 581.667 417.79"/>
      <circle cx="189.194" cy="177" r="9" fill="#AEC4D5"/>
      <circle cx="213.194" cy="177" r="9" fill="#AEC4D5"/>
      <circle cx="237.194" cy="177" r="9" fill="#AEC4D5"/>
      <rect width="752" height="3" x="169.194" y="192" fill="#000" opacity=".1"/>
    </g>
    <g transform="translate(120 120)">
      <path stroke="#F7F9F9" stroke-dasharray="12.07" stroke-width="4" d="M423.15,726 C623.629364,726 786.15,563.479364 786.15,363 C786.15,162.520636 623.629364,0 423.15,0 C222.670636,0 60.15,162.520636 60.15,363 C60.15,563.479364 222.670636,726 423.15,726 Z"/>
      <rect width="381.98" height="242.97" x="76.24" y="107.89" fill="#AEC4D5" fill-rule="nonzero" opacity=".2"/>
      <rect width="438.05" height="248.81" y="72.96" fill="url(#modular-deco-a)" fill-rule="nonzero"/>
      <rect width="427.54" height="206.76" x="4.67" y="109.18" fill="#FFF" fill-rule="nonzero"/>
      <rect width="148.35" height="156.53" x="33.88" y="126.7" fill="url(#modular-deco-b)" fill-rule="nonzero"/>
      <rect width="140.18" height="149.52" x="38.55" y="130.2" fill="#AEC4D5" fill-rule="nonzero"/>
      <path fill="#FFF" fill-opacity=".4" fill-rule="nonzero" d="M147.79,189.24 C146.69,180.36 145.18,171.43 141.79,163.15 C138.4,154.87 132.93,147.21 125.33,142.49 C122.621379,140.668177 119.485274,139.582602 116.23,139.34 C110.23,139.13 104.78,143.14 101.71,148.25 C100.672068,150.017348 99.7662641,151.859037 99,153.76 C93.164652,154.751167 88.7646626,159.605616 88.35,165.51 C75.4611667,171.000544 67.4979313,184.087359 68.5449194,198.057753 C69.5919075,212.028147 79.4167753,223.781862 92.98,227.29 L92.98,232.87 C78.5659553,236.640027 68.4959336,249.641152 68.45,264.54 L68.45,279.73 L133.87,279.73 L133.87,264.54 C133.824066,249.641152 123.754045,236.640027 109.34,232.87 L109.34,227.29 C123.782152,223.556189 133.87072,210.527007 133.87,195.61 C133.87,195.53 133.87,195.46 133.87,195.38 L137.55,203.57 C141.05,211.37 144.64,219.75 143.28,228.19 C149.98,216.71 149.42,202.46 147.79,189.24 Z"/>
      <rect width="427.54" height="31.54" x="4.67" y="77.64" fill="#AEC4D5" fill-rule="nonzero"/>
      <rect width="162.37" height="10.51" x="235.96" y="174.01" fill="#E0E0E0" fill-rule="nonzero"/>
      <rect width="162.37" height="10.51" x="235.96" y="218.4" fill="#F5F5F5" fill-rule="nonzero"/>
      <rect width="95.79" height="10.51" x="234.79" y="196.2" fill="#AEC4D5" fill-rule="nonzero" opacity=".2"/>
      <rect width="65.42" height="10.51" x="234.79" y="240.59" fill="#AFC4D4" fill-rule="nonzero" opacity=".2"/>
      <rect width="65.42" height="10.51" x="311.89" y="240.59" fill="#DB4771" fill-rule="nonzero"/>
      <rect width="215.55" height="100.52" x="667.36" y="134.67" fill="#8F3A5D" fill-rule="nonzero" opacity=".2"/>
      <rect width="231.14" height="109.19" x="633.47" y="110.64" fill="url(#modular-deco-c)" fill-rule="nonzero"/>
      <rect width="215.55" height="100.52" x="641.97" y="113.24" fill="#FFF" fill-rule="nonzero"/>
      <rect width="125.74" height="11.93" x="674.63" y="135.22" fill="#AFC4D4" fill-rule="nonzero" opacity=".3"/>
      <rect width="65.21" height="11.93" x="674.63" y="162.52" fill="#D04B70" fill-rule="nonzero"/>
      <rect width="502.83" height="135.25" x="404.2" y="555.44" fill="#AEC4D5" fill-rule="nonzero" opacity=".2"/>
      <rect width="510.15" height="144.01" x="373.29" y="525.93" fill="url(#modular-deco-d)" fill-rule="nonzero"/>
      <rect width="502.83" height="134.25" x="376.95" y="530.81" fill="#FFF" fill-rule="nonzero"/>
      <circle cx="499.83" cy="597.94" r="50.3" fill="url(#modular-deco-e)" fill-rule="nonzero"/>
      <circle cx="499.83" cy="597.94" r="44.71" fill="#AEC4D5" fill-rule="nonzero"/>
      <g fill="#AEC4D5" fill-rule="nonzero" opacity=".2" transform="translate(587 564)">
        <rect width="79.64" height="13.97" x=".85" y=".41"/>
        <rect width="219.35" height="13.97" x=".85" y="26.95"/>
        <rect width="219.35" height="13.97" x=".85" y="53.5"/>
      </g>
      <polygon fill="#FFF" fill-opacity=".4" fill-rule="nonzero" points="529.17 580.01 519.35 572.52 493.47 606.43 479.03 595.41 471.54 605.22 490.9 620 490.95 619.93 495.85 623.67"/>
    </g>
  </g>
</svg>
