<?xml version="1.0" encoding="UTF-8"?>
<svg width="111px" height="102px" viewBox="0 0 111 102" version="1.1" xmlns="http://www.w3.org/2000/svg" xmlns:xlink="http://www.w3.org/1999/xlink">
    <!-- Generator: Sketch 51.3 (57544) - http://www.bohemiancoding.com/sketch -->
    <title>Feature Copy</title>
    <desc>Created with Sketch.</desc>
    <defs>
        <path d="M51.4467532,0 L16.4961039,0 C12.7825974,0 9.94285714,2.93860465 9.94285714,6.78139535 L9.94285714,29.3860465 C9.94285714,33.2288372 12.7825974,36.1674419 16.4961039,36.1674419 L31.787013,36.1674419 L31.787013,40.6883721 L25.2337662,40.6883721 C23.9231169,40.6883721 23.0493506,41.5925581 23.0493506,42.9488372 C23.0493506,44.3051163 23.9231169,45.2093023 25.2337662,45.2093023 L42.7090909,45.2093023 C44.0197403,45.2093023 44.8935065,44.3051163 44.8935065,42.9488372 C44.8935065,41.5925581 44.0197403,40.6883721 42.7090909,40.6883721 L36.1558442,40.6883721 L36.1558442,36.1674419 L51.4467532,36.1674419 C55.1602597,36.1674419 58,33.2288372 58,29.3860465 L58,6.78139535 C58,2.93860465 55.1602597,0 51.4467532,0 Z M53.6311688,29.3860465 C53.6311688,30.7423256 52.7574026,31.6465116 51.4467532,31.6465116 L16.4961039,31.6465116 C15.1854545,31.6465116 14.3116883,30.7423256 14.3116883,29.3860465 L14.3116883,6.78139535 C14.3116883,5.42511628 15.1854545,4.52093023 16.4961039,4.52093023 L51.4467532,4.52093023 C52.7574026,4.52093023 53.6311688,5.42511628 53.6311688,6.78139535 L53.6311688,29.3860465 Z" id="path-1"></path>
        <path d="M17,43.8012422 C27.9813665,48.8695652 42.0881988,48.8695652 59.3204969,43.8012422 C76.552795,38.7329193 89.6459627,38.7329193 98.6,43.8012422 L98.6,89.4161491 L17,89.4161491 L17,43.8012422 Z" id="path-3"></path>
        <filter x="-4.3%" y="-13.2%" width="108.6%" height="116.2%" filterUnits="objectBoundingBox" id="filter-4">
            <feMorphology radius="1" operator="erode" in="SourceAlpha" result="shadowSpreadOuter1"></feMorphology>
            <feOffset dx="0" dy="-3" in="shadowSpreadOuter1" result="shadowOffsetOuter1"></feOffset>
            <feGaussianBlur stdDeviation="1" in="shadowOffsetOuter1" result="shadowBlurOuter1"></feGaussianBlur>
            <feColorMatrix values="0 0 0 0 0   0 0 0 0 0   0 0 0 0 0  0 0 0 0.129755435 0" type="matrix" in="shadowBlurOuter1"></feColorMatrix>
        </filter>
    </defs>
    <g id="Page-1" stroke="none" stroke-width="1" fill="none" fill-rule="evenodd">
        <g id="Home-opened" transform="translate(-457.000000, -835.000000)">
            <g id="Icon-Menu" transform="translate(184.000000, 830.000000)">
                <g id="Feature" transform="translate(248.000000, 0.000000)">
                    <g transform="translate(23.000000, 4.800000)">
                        <g id="responsive-icon" transform="translate(28.200000, 1.600000)">
                            <g id="smartphone">
                                <path d="M10.7714286,25.1162791 L2.48571429,25.1162791 C1.07714286,25.1162791 0,26.3035941 0,27.8562368 L0,42.4693446 C0,44.0219873 1.07714286,45.2093023 2.48571429,45.2093023 L10.7714286,45.2093023 C12.18,45.2093023 13.2571429,44.0219873 13.2571429,42.4693446 L13.2571429,27.8562368 C13.2571429,26.3035941 12.18,25.1162791 10.7714286,25.1162791 Z M5.8,40.6427061 C5.8,40.3687104 5.88285714,40.1860465 6.04857143,40.0033827 C6.38,39.638055 6.87714286,39.638055 7.20857143,40.0033827 C7.37428571,40.1860465 7.45714286,40.4600423 7.45714286,40.6427061 C7.45714286,40.82537 7.37428571,41.0993658 7.20857143,41.2820296 C7.04285714,41.4646934 6.87714286,41.5560254 6.62857143,41.5560254 C6.38,41.5560254 6.21428571,41.4646934 6.04857143,41.2820296 C5.88285714,41.0993658 5.8,40.9167019 5.8,40.6427061 Z" id="Combined-Shape" stroke="#4E5962" stroke-width="1.6"></path>
                                <mask id="mask-2" fill="white">
                                    <use xlink:href="#path-1"></use>
                                </mask>
                                <use id="Shape" stroke="#4E5962" stroke-width="1.6" fill="#FFFFFF" xlink:href="#path-1"></use>
                            </g>
                        </g>
                        <g id="submask">
                            <use fill="black" fill-opacity="1" filter="url(#filter-4)" xlink:href="#path-3"></use>
                            <use fill="#F7F9F9" fill-rule="evenodd" xlink:href="#path-3"></use>
                        </g>
                        <text id="Label" font-family="OpenSans-Light, Open Sans" font-size="22.4" font-weight="300" fill="#505050">
                            <tspan x="0.90859375" y="96">Responsive</tspan>
                        </text>
                    </g>
                </g>
            </g>
        </g>
    </g>
</svg>